<svg xmlns="http://www.w3.org/2000/svg" width="9" height="16.941" viewBox="0 0 17 32">
  <metadata><?xpacket begin="﻿" id="W5M0MpCehiHzreSzNTczkc9d"?>
<x:xmpmeta xmlns:x="adobe:ns:meta/" x:xmptk="Adobe XMP Core 5.6-c138 79.159824, 2016/09/14-01:09:01        ">
   <rdf:RDF xmlns:rdf="http://www.w3.org/1999/02/22-rdf-syntax-ns#">
      <rdf:Description rdf:about=""/>
   </rdf:RDF>
</x:xmpmeta>
                                                                                                    
                                                                                                    
                                                                                                    
                                                                                                    
                                                                                                    
                                                                                                    
                                                                                                    
                                                                                                    
                                                                                                    
                                                                                                    
                                                                                                    
                                                                                                    
                                                                                                    
                                                                                                    
                                                                                                    
                                                                                                    
                                                                                                    
                                                                                                    
                                                                                                    
                                                                                                    
                           
<?xpacket end="w"?></metadata>
<defs>
    <style>
      .cls-1 {
        fill: #fff;
        fill-rule: evenodd;
      }
    </style>
  </defs>
  <path id="Forma_1" data-name="Forma 1" class="cls-1" d="M16.36,64.006L12.282,64C7.7,64,4.741,67.091,4.741,71.875v3.631h-4.1A0.647,0.647,0,0,0,0,76.159V81.42a0.647,0.647,0,0,0,.641.653h4.1V95.348A0.647,0.647,0,0,0,5.382,96h5.349a0.647,0.647,0,0,0,.641-0.653V82.073h4.793a0.647,0.647,0,0,0,.641-0.653l0-5.261a0.66,0.66,0,0,0-.188-0.462,0.636,0.636,0,0,0-.454-0.191H11.372V72.428c0-1.48.346-2.231,2.24-2.231h2.747A0.647,0.647,0,0,0,17,69.544V64.659A0.647,0.647,0,0,0,16.36,64.006Z" transform="translate(0 -64)"/>
</svg>
